<?xml version="1.0" encoding="utf-8"?>
<!-- Generator: Adobe Illustrator 19.0.0, SVG Export Plug-In . SVG Version: 6.00 Build 0)  -->
<svg version="1.1" id="Capa_1" xmlns="http://www.w3.org/2000/svg" xmlns:xlink="http://www.w3.org/1999/xlink" x="0px" y="0px"
	 viewBox="-293 385 24 24" style="enable-background:new -293 385 24 24;" xml:space="preserve">
<style type="text/css">
	.st0{fill:#8F8F8F;}
</style>
<g>
	<path class="st0" d="M-335.8,771.7h-19.8c-0.9,0-1.6,0.7-1.6,1.6v13.4c0,0.9,0.7,1.6,1.6,1.6h11.6l-0.3,2.1c-0.1,0.4,0.1,0.8,0.4,1
		c0.3,0.2,0.7,0.2,1,0l2.5-1.3c0.1,0,0.3,0,0.3,0l2.5,1.3c0.2,0.1,0.3,0.1,0.5,0.1c0.2,0,0.4-0.1,0.5-0.2c0.3-0.2,0.4-0.6,0.4-1
		l-0.3-2.1h0.9c0.9,0,1.6-0.7,1.6-1.6v-13.4C-334.2,772.4-334.9,771.7-335.8,771.7z M-340.3,785.6c-1.5,0-2.8-1.2-2.8-2.8
		s1.2-2.8,2.8-2.8c1.6,0,2.8,1.2,2.8,2.8S-338.8,785.6-340.3,785.6z M-339.5,789c-0.5-0.2-1.1-0.2-1.6,0l-1.8,0.9l0.6-3.4
		c0.6,0.3,1.3,0.5,2,0.5c0.7,0,1.4-0.2,2-0.5l0.2,1.3l0,0l0.3,2.1L-339.5,789z M-335.5,786.8c0,0.1-0.1,0.2-0.2,0.2h-1.1l-0.2-1.5
		l0,0c0.6-0.7,0.9-1.6,0.9-2.6c0-2.3-1.9-4.1-4.1-4.1c-2.3,0-4.1,1.9-4.1,4.1c0,1,0.3,1.9,0.9,2.6l0,0l-0.2,1.5l0,0h-11.8
		c-0.1,0-0.2-0.1-0.2-0.2v-13.4c0-0.1,0.1-0.2,0.2-0.2h19.8c0.1,0,0.2,0.1,0.2,0.2v13.4H-335.5z"/>
	<path class="st0" d="M-338.2,775.7h-15.5c-0.4,0-0.7,0.3-0.7,0.7s0.3,0.7,0.7,0.7h15.5c0.4,0,0.7-0.3,0.7-0.7
		S-337.8,775.7-338.2,775.7z"/>
	<path class="st0" d="M-347.1,779.4h-6.6c-0.4,0-0.7,0.3-0.7,0.7s0.3,0.7,0.7,0.7h6.6c0.4,0,0.7-0.3,0.7-0.7
		S-346.7,779.4-347.1,779.4z"/>
</g>
</svg>
